<?xml version="1.0" encoding="utf-8"?>
<!-- Generator: Adobe Illustrator 25.0.0, SVG Export Plug-In . SVG Version: 6.00 Build 0)  -->
<svg version="1.1" id="Layer_1" xmlns="http://www.w3.org/2000/svg" xmlns:xlink="http://www.w3.org/1999/xlink" x="0px" y="0px"
	 viewBox="0 0 122.9 122.9" style="enable-background:new 0 0 122.9 122.9;" xml:space="preserve">
<style type="text/css">
	.st0{fill-rule:evenodd;clip-rule:evenodd;fill:#00AFEF;}
	.st1{fill:url(#SVGID_1_);}
	.st2{fill-rule:evenodd;clip-rule:evenodd;fill:url(#SVGID_2_);}
	.st3{fill-rule:evenodd;clip-rule:evenodd;fill:url(#SVGID_3_);}
	.st4{fill:#008080;}
</style>
<path class="st0" d="M61.7,79.4c0,0.2,0,0.4,0,0.6L61.7,79.4L61.7,79.4z"/>
<g>
	<linearGradient id="SVGID_1_" gradientUnits="userSpaceOnUse" x1="1.6766" y1="52.3907" x2="100.3166" y2="88.8707">
		<stop  offset="0" style="stop-color:#008080"/>
		<stop  offset="0.5196" style="stop-color:#00B2B2"/>
		<stop  offset="1" style="stop-color:#008080"/>
	</linearGradient>
	<path class="st1" d="M56.6,69.2V80h10.3V69.2H56.6z"/>
	<g>
		<linearGradient id="SVGID_2_" gradientUnits="userSpaceOnUse" x1="13.1225" y1="21.4416" x2="111.7625" y2="57.9216">
			<stop  offset="0" style="stop-color:#008080"/>
			<stop  offset="0.5196" style="stop-color:#00B2B2"/>
			<stop  offset="1" style="stop-color:#008080"/>
		</linearGradient>
		<path class="st2" d="M109,23c-6-6-14.3-9.8-23.5-9.8H70v66.4h15.5c9.1,0,17.4-3.7,23.5-9.7c6-6,9.7-14.3,9.7-23.5S114.9,29,109,23
			z M97.1,58c-3,3-7.1,4.8-11.6,4.8h-0.6V30.1h0.6c4.5,0,8.6,1.8,11.6,4.8c3,3,4.8,7,4.8,11.5C101.9,51,100,55.1,97.1,58z"/>
	</g>
	<linearGradient id="SVGID_3_" gradientUnits="userSpaceOnUse" x1="6.4713" y1="39.426" x2="105.1113" y2="75.906">
		<stop  offset="0" style="stop-color:#008080"/>
		<stop  offset="0.5196" style="stop-color:#00B2B2"/>
		<stop  offset="1" style="stop-color:#008080"/>
	</linearGradient>
	<path class="st3" d="M53.4,13.3V80c-0.3,7.4-7.4,13.2-16,13.2c-3,0-5.8-0.7-8.2-1.9c5.5-1.9,9.3-5.8,9.4-10.8V80h0V50.6H26.7V41
		h11.9V30.1h-0.7c-4.5,0-8.6,1.8-11.6,4.8c-3,3-4.8,7-4.8,11.5c0,4.5,1.9,8.6,4.8,11.6c3,3,7,4.8,11.5,4.8v16.8
		c-9.1,0-17.4-3.7-23.3-9.7c-6-6-9.7-14.3-9.7-23.5S8.4,29,14.4,23c6-6,14.3-9.8,23.5-9.8H53.4z"/>
</g>

</svg>
