<?xml version="1.0" encoding="utf-8"?>
<!-- Generator: Adobe Illustrator 25.0.0, SVG Export Plug-In . SVG Version: 6.00 Build 0)  -->
<svg version="1.1" id="Layer_1" xmlns="http://www.w3.org/2000/svg" xmlns:xlink="http://www.w3.org/1999/xlink" x="0px" y="0px"
	 viewBox="0 0 122.9 122.9" style="enable-background:new 0 0 122.9 122.9;" xml:space="preserve">
<style type="text/css">
	.st0{fill-rule:evenodd;clip-rule:evenodd;fill:#ffffff;}
	.st1{fill:#ffffff;}
	.st2{fill-rule:evenodd;clip-rule:evenodd;fill:#ffffff;}
	.st3{fill-rule:evenodd;clip-rule:evenodd;fill:#ffffff;}
	.st4{fill:#ffffff;}
</style>
<path class="st0" d="M61.7,79.4c0,0.2,0,0.4,0,0.6L61.7,79.4L61.7,79.4z"/>
<g>
	<linearGradient id="SVGID_1_" gradientUnits="userSpaceOnUse" x1="1.6766" y1="52.3907" x2="100.3166" y2="88.8707">
		<stop  offset="0" style="stop-color:#008080"/>
		<stop  offset="0.5196" style="stop-color:#00B2B2"/>
		<stop  offset="1" style="stop-color:#008080"/>
	</linearGradient>
	<path class="st1" d="M56.6,69.2V80h10.3V69.2H56.6z"/>
	<g>
		<linearGradient id="SVGID_2_" gradientUnits="userSpaceOnUse" x1="13.1225" y1="21.4416" x2="111.7625" y2="57.9216">
			<stop  offset="0" style="stop-color:#008080"/>
			<stop  offset="0.5196" style="stop-color:#00B2B2"/>
			<stop  offset="1" style="stop-color:#008080"/>
		</linearGradient>
		<path class="st2" d="M109,23c-6-6-14.3-9.8-23.5-9.8H70v66.4h15.5c9.1,0,17.4-3.7,23.5-9.7c6-6,9.7-14.3,9.7-23.5S114.9,29,109,23
			z M97.1,58c-3,3-7.1,4.8-11.6,4.8h-0.6V30.1h0.6c4.5,0,8.6,1.8,11.6,4.8c3,3,4.8,7,4.8,11.5C101.9,51,100,55.1,97.1,58z"/>
	</g>
	<linearGradient id="SVGID_3_" gradientUnits="userSpaceOnUse" x1="6.4713" y1="39.426" x2="105.1113" y2="75.906">
		<stop  offset="0" style="stop-color:#008080"/>
		<stop  offset="0.5196" style="stop-color:#00B2B2"/>
		<stop  offset="1" style="stop-color:#008080"/>
	</linearGradient>
	<path class="st3" d="M53.4,13.3V80c-0.3,7.4-7.4,13.2-16,13.2c-3,0-5.8-0.7-8.2-1.9c5.5-1.9,9.3-5.8,9.4-10.8V80h0V50.6H26.7V41
		h11.9V30.1h-0.7c-4.5,0-8.6,1.8-11.6,4.8c-3,3-4.8,7-4.8,11.5c0,4.5,1.9,8.6,4.8,11.6c3,3,7,4.8,11.5,4.8v16.8
		c-9.1,0-17.4-3.7-23.3-9.7c-6-6-9.7-14.3-9.7-23.5S8.4,29,14.4,23c6-6,14.3-9.8,23.5-9.8H53.4z"/>
</g>
<g>
	<path class="st4" d="M12,101.7l-0.2,1.4H11l0.9-5.4H13l0.9,5.4H13l-0.2-1.4H12z M12.7,101c-0.1-0.9-0.2-1.8-0.3-2.4h0
		c0,0.4-0.2,1.6-0.3,2.4H12.7z"/>
	<path class="st4" d="M19.4,101.8L19.4,101.8c0,0.8-0.2,1.5-1.2,1.5c-1,0-1.1-0.6-1.1-1.5v-1.4c0-0.7,0.2-1.4,1.2-1.4
		c1,0,1.1,0.7,1.1,1.3v0.2h-0.8v-0.2c0-0.3-0.1-0.5-0.3-0.5c-0.2,0-0.3,0.2-0.3,0.5v1.8c0,0.3,0.1,0.6,0.3,0.6
		c0.3,0,0.3-0.2,0.3-0.6v-0.2H19.4z"/>
	<path class="st4" d="M25.1,102.3c0,0.3,0,0.7,0,0.9h-0.8c0-0.1,0-0.2-0.1-0.3c-0.1,0.3-0.4,0.4-0.7,0.4c-0.6,0-0.9-0.6-0.9-1.2
		v-0.1c0-1,0.7-1.3,1.5-1.3c0,0,0.1,0,0.1,0v-0.5c0-0.3,0-0.5-0.3-0.5c-0.2,0-0.3,0.2-0.3,0.5v0.1h-0.8v-0.1c0-0.6,0.2-1.1,1.2-1.1
		c0.8,0,1.1,0.4,1.1,1.1V102.3z M24.3,101.3c0,0-0.1,0-0.1,0c-0.4,0-0.6,0.1-0.6,0.7v0.1c0,0.3,0.1,0.5,0.4,0.5
		c0.3,0,0.4-0.2,0.4-0.8V101.3z"/>
	<path class="st4" d="M31.1,97.5v4.5c0,0.6,0,0.9,0,1.2h-0.8c0-0.1,0-0.3,0-0.4c-0.1,0.3-0.3,0.5-0.7,0.5c-0.8,0-0.9-0.6-0.9-1.4
		v-1.6c0-0.7,0.3-1.3,1-1.3c0.3,0,0.5,0.1,0.7,0.3v-1.7H31.1z M29.4,100.2v1.7c0,0.4,0.1,0.6,0.4,0.6c0.3,0,0.4-0.3,0.4-0.8v-1.3
		c0-0.5,0-0.8-0.4-0.8C29.5,99.7,29.4,99.9,29.4,100.2z"/>
	<path class="st4" d="M34.7,99h0.8v4.2h-0.8V99z M34.7,97.5h0.8v0.9h-0.8V97.5z"/>
	<path class="st4" d="M39.1,100.2c0-0.8,0-1,0-1.2h0.8c0,0.1,0,0.2,0,0.4c0.1-0.3,0.4-0.4,0.7-0.4c0.3,0,0.6,0.1,0.7,0.5
		c0.1-0.2,0.4-0.5,0.8-0.5c0.5,0,0.8,0.2,0.8,1v3.2h-0.8v-3.1c0-0.3-0.1-0.5-0.3-0.5c-0.3,0-0.4,0.2-0.4,0.6v2.9h-0.8v-3
		c0-0.4-0.1-0.5-0.3-0.5c-0.3,0-0.4,0.2-0.4,0.6v2.9h-0.8V100.2z"/>
	<path class="st4" d="M46.6,99h0.8v4.2h-0.8V99z M46.6,97.5h0.8v0.9h-0.8V97.5z"/>
	<path class="st4" d="M53.3,101.8L53.3,101.8c0,0.8-0.2,1.5-1.2,1.5c-1,0-1.1-0.6-1.1-1.5v-1.4c0-0.7,0.2-1.4,1.2-1.4
		c1,0,1.1,0.7,1.1,1.3v0.2h-0.8v-0.2c0-0.3-0.1-0.5-0.3-0.5c-0.2,0-0.3,0.2-0.3,0.5v1.8c0,0.3,0.1,0.6,0.3,0.6
		c0.3,0,0.3-0.2,0.3-0.6v-0.2H53.3z"/>
	<path class="st4" d="M60.7,97.8h1.2c1.1,0,1.4,0.6,1.4,1.6v2.1c0,0.8-0.1,1.7-1.4,1.7h-1.2V97.8z M61.5,102.5h0.3
		c0.5,0,0.6-0.4,0.6-0.9v-2.3c0-0.5-0.1-0.8-0.6-0.8h-0.3V102.5z"/>
	<path class="st4" d="M66.8,99h0.8v4.2h-0.8V99z M66.8,97.5h0.8v0.9h-0.8V97.5z"/>
	<path class="st4" d="M71.9,101.9v0.2c0,0.3,0.1,0.5,0.3,0.5c0.2,0,0.3-0.1,0.3-0.4c0-0.3-0.1-0.5-0.6-0.8c-0.6-0.4-0.9-0.7-0.9-1.3
		c0-0.7,0.4-1.1,1.1-1.1c0.8,0,1.1,0.4,1.1,1.2v0.2h-0.8V100c0-0.3-0.1-0.4-0.3-0.4c-0.2,0-0.3,0.1-0.3,0.4c0,0.2,0.1,0.3,0.5,0.6
		c0.7,0.5,1,0.8,1,1.5c0,0.8-0.4,1.2-1.2,1.2c-0.9,0-1.2-0.6-1.2-1.2v-0.2H71.9z"/>
	<path class="st4" d="M79,101.8L79,101.8c0,0.8-0.2,1.5-1.2,1.5c-1,0-1.1-0.6-1.1-1.5v-1.4c0-0.7,0.2-1.4,1.2-1.4
		c1,0,1.1,0.7,1.1,1.3v0.2h-0.8v-0.2c0-0.3-0.1-0.5-0.3-0.5c-0.2,0-0.3,0.2-0.3,0.5v1.8c0,0.3,0.1,0.6,0.3,0.6
		c0.3,0,0.3-0.2,0.3-0.6v-0.2H79z"/>
	<path class="st4" d="M84.9,101.9c0,0.6,0,1,0,1.2h-0.8c0-0.1,0-0.3,0-0.4c-0.1,0.4-0.4,0.5-0.8,0.5c-0.4,0-0.8-0.2-0.8-1.1V99h0.8
		v3c0,0.4,0.1,0.6,0.4,0.6c0.3,0,0.4-0.2,0.4-0.7V99h0.8V101.9z"/>
	<path class="st4" d="M89.1,101.9v0.2c0,0.3,0.1,0.5,0.3,0.5c0.2,0,0.3-0.1,0.3-0.4c0-0.3-0.1-0.5-0.6-0.8c-0.6-0.4-0.9-0.7-0.9-1.3
		c0-0.7,0.4-1.1,1.1-1.1c0.8,0,1.1,0.4,1.1,1.2v0.2h-0.8V100c0-0.3-0.1-0.4-0.3-0.4c-0.2,0-0.3,0.1-0.3,0.4c0,0.2,0.1,0.3,0.5,0.6
		c0.7,0.5,1,0.8,1,1.5c0,0.8-0.4,1.2-1.2,1.2c-0.9,0-1.2-0.6-1.2-1.2v-0.2H89.1z"/>
	<path class="st4" d="M94.7,101.9v0.2c0,0.3,0.1,0.5,0.3,0.5c0.2,0,0.3-0.1,0.3-0.4c0-0.3-0.1-0.5-0.6-0.8c-0.6-0.4-0.9-0.7-0.9-1.3
		c0-0.7,0.4-1.1,1.1-1.1c0.8,0,1.1,0.4,1.1,1.2v0.2h-0.8V100c0-0.3-0.1-0.4-0.3-0.4c-0.2,0-0.3,0.1-0.3,0.4c0,0.2,0.1,0.3,0.5,0.6
		c0.7,0.5,1,0.8,1,1.5c0,0.8-0.4,1.2-1.2,1.2c-0.9,0-1.2-0.6-1.2-1.2v-0.2H94.7z"/>
	<path class="st4" d="M99.6,99h0.8v4.2h-0.8V99z M99.6,97.5h0.8v0.9h-0.8V97.5z"/>
	<path class="st4" d="M106.4,100.3v1.6c0,0.9-0.4,1.4-1.2,1.4c-0.8,0-1.2-0.5-1.2-1.4v-1.7c0-0.9,0.5-1.3,1.2-1.3
		C106,98.9,106.4,99.4,106.4,100.3z M104.8,100.2v1.7c0,0.3,0.1,0.6,0.4,0.6c0.3,0,0.4-0.2,0.4-0.6v-1.7c0-0.3-0.1-0.6-0.4-0.6
		C104.9,99.6,104.8,99.8,104.8,100.2z"/>
	<path class="st4" d="M109.9,100.3c0-0.9,0-1.1,0-1.3h0.8c0,0.1,0,0.3,0,0.4c0.1-0.2,0.3-0.4,0.8-0.4c0.5,0,0.9,0.3,0.9,1.1v3.2
		h-0.8v-3c0-0.4-0.1-0.5-0.4-0.5c-0.3,0-0.4,0.2-0.4,0.7v2.8h-0.8V100.3z"/>
</g>
</svg>
